# xmcd
#
# Track frame offsets: 
#        150
#        11285
#        22217
#        31107
#        40537
#        50352
#        59852
#        71437
#        83187
#        93150
#        105230
#        121387
#        130940
#        141382
#        159090
#        170332
#        184415
#        201992
#        211205
#        224235
#        234565
#        248460
#        261207
#        270127
#        281690
#
# Disc length: 3939 seconds
#
# Revision: 0
# Processed by: cddbd v1.5.2PL0 Copyright (c) Steve Scherf et al.
# Submitted via: ExactAudioCopy v0.95b3
#
DISCID=600f6119
DTITLE=The Byrds  - There Is A Season - Disc 1
DYEAR=1900
DGENRE=
TTITLE0=The Jet Set \\ The Only Girl I Adore (Mono)
TTITLE1=The Beefeaters \\ Please Let Me Love You (Mono)
TTITLE2=The Beefeaters \\ Don't Be Long (Mono)
TTITLE3=The Airport Song
TTITLE4=You Movin'
TTITLE5=You Showed Me
TTITLE6=Mr. Tambourine Man
TTITLE7=I'll Feel A Whole Lot Better
TTITLE8=You Won't Have To Cry
TTITLE9=Here Without You
TTITLE10=The Bells Of Rhymney
TTITLE11=All I Really Want To Do (Mono Single Version)
TTITLE12=I Knew I'd Want You
TTITLE13=Chimes Of Freedom
TTITLE14=She Has A Way
TTITLE15=It's All Over Now, Baby Blue
TTITLE16=Turn! Turn! Turn! (To Everything There Is A Season) - (Mono)
TTITLE17=It Won't Be Wrong
TTITLE18=Set You Free This Time
TTITLE19=The World Turns All Around Her
TTITLE20=The Day Walk
TTITLE21=If You're Gone
TTITLE22=The Times They Are A-Changin' (Withdrawn Version - Mono)
TTITLE23=She Don't Care About Time (Mono Single Version)
TTITLE24=Stranger In A Strange Land (Instrumental)
EXTD=
EXTT0=
EXTT1=
EXTT2=
EXTT3=
EXTT4=
EXTT5=
EXTT6=
EXTT7=
EXTT8=
EXTT9=
EXTT10=
EXTT11=
EXTT12=
EXTT13=
EXTT14=
EXTT15=
EXTT16=
EXTT17=
EXTT18=
EXTT19=
EXTT20=
EXTT21=
EXTT22=
EXTT23=
EXTT24=
PLAYORDER=
